<svg height="481pt" viewBox="-1 0 481 481.01025" width="481pt" xmlns="http://www.w3.org/2000/svg"><path d="m459.273438 405.492188c8.480468-35.492188 3.9375-72.851563-12.800782-105.277344-6.050781-11.164063-13.566406-21.464844-22.34375-30.640625 8.507813-16.226563 9.628906-35.328125 3.078125-52.4375s-20.140625-30.574219-37.308593-36.972657c-.691407-54.082031-35.410157-101.851562-86.640626-119.199218-1.554687-33.296875-28.425781-59.816406-61.742187-60.9296878-33.3125-1.1132812-61.894531 23.5546878-65.667969 56.6757818-56.394531 14.652343-94.542968 67.152343-91.0625 125.320312-17.175781 7.773438-30.015625 22.765625-35.058594 40.929688-5.042968 18.167968-1.765624 37.632812 8.945313 53.148437-6.832031 7.273437-12.898437 15.226563-18.101563 23.742187-18.5 31.488282-25.203124 68.523438-18.921874 104.496094-17.941407 9.167969-26.175782 30.316406-19.152344 49.199219 7.023437 18.886719 27.074218 29.515625 46.644531 24.726563 19.574219-4.785157 32.457031-23.472657 29.96875-43.464844-2.484375-19.992188-19.554687-34.957032-39.699219-34.804688-.753906 0-1.449218.183594-2.183594.226563-5.257812-31.730469.761719-64.300781 17.015626-92.058594 4.429687-7.128906 9.554687-13.800781 15.296874-19.925781 24.4375 21.394531 61.070313 20.945312 84.980469-1.039063 5.292969 6.378907 9.929688 13.269531 13.851563 20.574219 14.714844 28.542969 18.835937 61.378906 11.628906 92.671875-20.386719-2.363281-39.257812 11.089844-43.667969 31.132813-4.414062 20.046874 7.0625 40.179687 26.558594 46.597656 19.496094 6.414062 40.683594-2.964844 49.039063-21.710938 8.355468-18.75 1.167968-40.777344-16.640626-50.988281 8.511719-35.488281 3.964844-72.855469-12.800781-105.269531-4.878906-9.046875-10.742187-17.523438-17.480469-25.28125 12.84375-19.664063 13.871094-44.789063 2.683594-65.4375-11.1875-20.648438-32.796875-33.507813-56.28125-33.492188-3.648437 0-7.292968.300782-10.890625.90625-.871093-47.609375 30.03125-89.984375 75.625-103.703125 4.425781 30.65625 30.1875 53.738281 61.148438 54.773438 30.960937 1.039062 58.210937-20.265625 64.675781-50.558594 41.417969 15.851563 69.597656 54.625 71.886719 98.910156-25.921875-2.664062-50.871094 10.671875-63.058594 33.707031-12.1875 23.035157-9.175781 51.160157 7.613281 71.09375-5.109375 5.867188-9.738281 12.140626-13.839844 18.753907-18.46875 31.492187-25.167968 68.519531-18.90625 104.488281-17.929687 9.1875-26.136718 30.351562-19.085937 49.226562s27.121094 29.476563 46.683594 24.660157c19.566406-4.816407 32.421875-23.523438 29.902343-43.515625-2.515624-19.988282-19.605468-34.925782-39.753906-34.742188-.746094 0-1.441406.175782-2.183594.226563-5.226562-31.738281.792969-64.304688 17.023438-92.074219 3.535156-5.710938 7.519531-11.132812 11.910156-16.214844 26.359375 19.058594 62.851563 15.164063 84.59375-9.03125 6.847656 7.550782 12.757813 15.90625 17.597656 24.878906 14.6875 28.554688 18.804688 61.382813 11.617188 92.679688-1.507812-.242188-3.03125-.398438-4.558594-.464844-20.359375-.25-37.742187 14.652344-40.601562 34.8125-2.863282 20.160156 9.6875 39.308594 29.316406 44.730469 19.625 5.421875 40.226562-4.566406 48.121094-23.335937 7.894531-18.769532.628906-40.480469-16.972656-50.71875zm-395.863282 34.511718c0 13.257813-10.746094 24-24 24s-24-10.742187-24-24c0-13.253906 10.746094-24 24-24s24 10.746094 24 24zm112 24c-13.253906 0-24-10.742187-24-24 0-13.253906 10.746094-24 24-24s24 10.746094 24 24c0 13.257813-10.746094 24-24 24zm-16-224c.078125 11.09375-3.761718 21.859375-10.839844 30.402344-8.945312 10.960938-22.277343 17.410156-36.425781 17.609375-14.144531.199219-27.65625-5.871094-36.902343-16.578125-7.660157-8.675781-11.871094-19.859375-11.832032-31.433594-.019531-20.503906 13.023438-38.746094 32.429688-45.367187 4.996094-1.785157 10.265625-2.679688 15.570312-2.632813 26.496094.027344 47.972656 21.503906 48 48zm80-128c-26.511718 0-48-21.488281-48-48 0-26.507812 21.488282-48 48-48 26.507813 0 48 21.492188 48 48-.027344 26.5-21.503906 47.976563-48 48zm88 328c0 13.257813-10.746094 24-24 24s-24-10.742187-24-24c0-13.253906 10.746094-24 24-24s24 10.746094 24 24zm40-152c-26.511718 0-48-21.488281-48-48 0-26.507812 21.488282-48 48-48 26.507813 0 48 21.492188 48 48-.027344 26.5-21.503906 47.976563-48 48zm72 176c-13.253906 0-24-10.742187-24-24 0-13.253906 10.746094-24 24-24s24 10.746094 24 24c0 13.257813-10.746094 24-24 24zm0 0"/><path d="m383.410156.00390625h72v15.99999975h-72zm0 0"/><path d="m383.410156 24.003906h96v16h-96zm0 0"/><path d="m431.410156 48.003906h48v16h-48zm0 0"/><path d="m383.410156 48.003906h40v16h-40zm0 0"/><path d="m383.410156 72.003906h96v16h-96zm0 0"/><path d="m463.410156.00390625h16v15.99999975h-16zm0 0"/></svg>