<svg enable-background="new 0 0 24 24" height="512" viewBox="0 0 24 24" width="512" xmlns="http://www.w3.org/2000/svg"><path d="m8.34 21h-6.34c-1.103 0-2-.897-2-2v-17c0-1.103.897-2 2-2h15c1.103 0 2 .897 2 2v5.5c0 .276-.224.5-.5.5s-.5-.224-.5-.5v-5.5c0-.551-.449-1-1-1h-15c-.551 0-1 .449-1 1v17c0 .551.449 1 1 1h6.34c.276 0 .5.224.5.5s-.224.5-.5.5z"/><path d="m18.5 6h-18c-.276 0-.5-.224-.5-.5s.224-.5.5-.5h18c.276 0 .5.224.5.5s-.224.5-.5.5z"/><path d="m15.5 11h-15c-.276 0-.5-.224-.5-.5s.224-.5.5-.5h15c.276 0 .5.224.5.5s-.224.5-.5.5z"/><path d="m9.5 16h-9c-.276 0-.5-.224-.5-.5s.224-.5.5-.5h9c.276 0 .5.224.5.5s-.224.5-.5.5z"/><path d="m9.5 16c-.276 0-.5-.224-.5-.5v-10c0-.276.224-.5.5-.5s.5.224.5.5v10c0 .276-.224.5-.5.5z"/><path d="m15.429 24c-.401 0-.778-.156-1.061-.439l-3.535-3.536c-.283-.283-.439-.66-.439-1.061 0-.4.156-.777.439-1.061l7.071-7.071c.567-.566 1.556-.566 2.122 0l3.535 3.535c.283.284.439.661.439 1.062 0 .4-.156.777-.439 1.061l-7.071 7.071c-.283.283-.66.439-1.061.439zm-.354-1.146c.195.195.512.196.708 0l7.071-7.071c.195-.195.195-.512 0-.708l-3.536-3.535c-.188-.188-.517-.188-.707 0l-7.071 7.071c-.094.095-.146.22-.146.354s.052.259.146.353z"/><path d="m18.671 21.171c-.128 0-.256-.049-.354-.146l-4.95-4.95c-.195-.195-.195-.512 0-.707s.512-.195.707 0l4.95 4.95c.195.195.195.512 0 .707-.097.098-.225.146-.353.146z"/></svg>