<svg xmlns="http://www.w3.org/2000/svg" height="565pt" version="1.1" viewBox="-42 0 565 565.74145" width="565pt">
<g id="surface1">
<path d="M 408.75 180.472656 C 408.226562 168.222656 398.128906 158.5625 385.867188 158.574219 L 313.160156 158.574219 C 347.707031 118.335938 343.078125 57.707031 302.835938 23.160156 C 262.597656 -11.382812 201.96875 -6.753906 167.421875 33.488281 C 136.542969 69.46875 136.542969 122.59375 167.421875 158.5625 L 94.714844 158.5625 C 82.453125 158.554688 72.355469 168.210938 71.832031 180.464844 L 0.441406 541.035156 C 0.375 541.722656 0.375 542.425781 0.441406 543.113281 C 0.441406 555.75 10.6875 566 23.324219 566 L 457.585938 566 C 470.222656 566 480.472656 555.75 480.472656 543.113281 C 480.535156 542.421875 480.535156 541.722656 480.472656 541.035156 Z M 166.21875 97.148438 C 166.160156 56.207031 199.308594 22.976562 240.246094 22.917969 C 281.1875 22.863281 314.421875 56.011719 314.476562 96.949219 C 314.507812 122.167969 301.71875 145.664062 280.53125 159.34375 L 200.160156 159.34375 C 179.09375 145.65625 166.324219 122.277344 166.21875 97.148438 Z M 457.585938 544.113281 L 23.105469 544.113281 C 22.832031 544.253906 22.503906 544.253906 22.230469 544.113281 L 93.621094 184.417969 C 93.6875 183.726562 93.6875 183.027344 93.621094 182.335938 C 93.621094 181.789062 94.058594 181.351562 94.605469 181.351562 L 385.976562 181.351562 C 386.523438 181.351562 386.960938 181.789062 386.960938 182.335938 C 386.894531 183.027344 386.894531 183.726562 386.960938 184.417969 L 458.351562 544.113281 C 458.113281 544.210938 457.828125 544.210938 457.585938 544.113281 Z M 457.585938 544.113281 " style=" stroke:none;fill-rule:nonzero;fill:rgb(0%,0%,0%);fill-opacity:1;" />
<path d="M 240.34375 143.902344 C 266.472656 143.902344 287.648438 122.726562 287.648438 96.601562 C 287.648438 70.472656 266.472656 49.296875 240.34375 49.296875 C 214.21875 49.296875 193.042969 70.472656 193.042969 96.601562 C 193.042969 96.785156 193.042969 96.960938 193.042969 97.148438 C 193.339844 123.054688 214.429688 143.902344 240.34375 143.902344 Z M 240.34375 71.199219 C 254.371094 71.199219 265.75 82.574219 265.738281 96.613281 C 265.726562 110.652344 254.363281 122.015625 240.324219 122.003906 C 226.503906 122.003906 215.226562 110.957031 214.929688 97.148438 C 214.625 83.125 225.75 71.507812 239.777344 71.210938 C 239.972656 71.199219 240.160156 71.199219 240.34375 71.199219 Z M 240.34375 71.199219 " style=" stroke:none;fill-rule:nonzero;fill:rgb(0%,0%,0%);fill-opacity:1;" />
</g>
</svg>